<?xml version="1.0" encoding="UTF-8" standalone="no"?>
<!-- Created with Inkscape (http://www.inkscape.org/) -->

<svg
   xmlns:dc="http://purl.org/dc/elements/1.1/"
   xmlns:cc="http://creativecommons.org/ns#"
   xmlns:rdf="http://www.w3.org/1999/02/22-rdf-syntax-ns#"
   xmlns:svg="http://www.w3.org/2000/svg"
   xmlns="http://www.w3.org/2000/svg"
   xmlns:sodipodi="http://sodipodi.sourceforge.net/DTD/sodipodi-0.dtd"
   xmlns:inkscape="http://www.inkscape.org/namespaces/inkscape"
   id="svg3269"
   version="1.1"
   inkscape:version="0.91 r13725"
   width="300"
   height="300"
   viewBox="-10 -10 310 310"
   sodipodi:docname="participation-icon.svg">
  <metadata
     id="metadata3275">
    <rdf:RDF>
      <cc:Work
         rdf:about="">
        <dc:format>image/svg+xml</dc:format>
        <dc:type
           rdf:resource="http://purl.org/dc/dcmitype/StillImage" />
        <dc:title></dc:title>
      </cc:Work>
    </rdf:RDF>
  </metadata>
  <defs
     id="defs3273" />
  <sodipodi:namedview
     pagecolor="#ffffff"
     bordercolor="#666666"
     borderopacity="1"
     objecttolerance="10"
     gridtolerance="10"
     guidetolerance="10"
     inkscape:pageopacity="0"
     inkscape:pageshadow="2"
     inkscape:window-width="1048"
     inkscape:window-height="988"
     id="namedview3271"
     showgrid="false"
     fit-margin-top="0"
     fit-margin-left="0"
     fit-margin-right="0"
     fit-margin-bottom="0"
     borderlayer="false"
     inkscape:zoom="1.4142136"
     inkscape:cx="106.56158"
     inkscape:cy="136.96"
     inkscape:window-x="0"
     inkscape:window-y="30"
     inkscape:window-maximized="0"
     inkscape:current-layer="svg3269" />
  <path
     inkscape:connector-curvature="0"
     id="path3287"
     d="M 123.28958,298.23089 C 111.72684,296.13244 93.289196,289.96017 82.809234,284.67949 41.227192,263.72698 12.295658,225.65897 2.2442472,178.67231 -0.78386084,164.51704 -0.7401246,134.84363 2.3297638,120.67167 8.8943501,90.366413 22.538858,65.077627 43.799667,43.811208 65.06047,22.544798 90.342583,8.8966883 120.63984,2.330368 c 14.16823,-3.0706768 43.83381,-3.1144306 57.98535,-0.085527 62.31327,13.337133 108.83981,60.729695 119.5418,121.766869 2.6892,15.33749 2.3835,40.10052 -0.68071,55.14087 -12.29987,60.37244 -58.02444,106.10907 -118.38095,118.41219 -14.48796,2.95323 -41.44101,3.2749 -55.81573,0.66612 z m 61.12132,-9.18822 c 27.13188,-7.32386 46.51614,-18.5222 66.27717,-38.28844 19.70503,-19.71022 30.68539,-38.68788 38.35768,-66.29465 2.36074,-8.49453 2.71564,-12.94414 2.71967,-34.09863 0.004,-22.42657 -0.25388,-25.28328 -3.30096,-36.52803 C 270.63196,48.025203 209.38914,3.3584987 142.33961,7.2585706 120.65374,8.5199732 104.27309,12.974127 84.943179,22.865545 31.527787,50.199041 0.64266085,108.24223 8.0770922,167.32191 15.773752,228.48541 60.403979,277.01746 121.00912,290.12708 c 15.63853,3.38281 48.96423,2.81282 63.40178,-1.08441 z M 85.452447,230.52279 c -0.007,-7.90413 -0.221325,-8.54309 -3.481027,-10.39723 -1.910225,-1.08655 -7.817251,-7.09716 -13.126717,-13.3569 l -9.653573,-11.38133 0.34951,-15.963 0.349511,-15.963 5.807897,0.19198 5.807898,0.19198 0.428732,-17.21822 c 0.488541,-19.62023 1.673642,-22.46687 9.353337,-22.46687 3.53553,0 4.172315,-0.44286 4.172315,-2.90166 0,-3.85244 4.933164,-8.32723 9.180199,-8.32723 1.970446,0 4.720999,1.31488 6.524771,3.11913 1.71508,1.71553 4.42035,3.11913 6.01172,3.11913 4.88778,0 9.46646,4.56974 9.46646,9.44797 0,3.41013 0.49338,4.27624 2.43597,4.27624 4.43355,0 8.64743,2.78657 9.97519,6.59643 0.78347,2.24805 1.28743,16.08559 1.25468,34.45045 -0.0563,31.55595 -0.78983,37.27561 -5.43963,42.41493 -1.47954,1.63531 -1.98958,4.81258 -1.98958,12.39395 0,10.0428 -0.0465,10.19492 -3.11832,10.19492 -3.10374,0 -3.11831,-0.0546 -3.11831,-11.65935 0,-10.06391 0.34041,-11.96749 2.48766,-13.91124 1.36819,-1.23854 3.04896,-4.27315 3.73501,-6.74357 1.33253,-4.79834 1.7743,-62.21391 0.50417,-65.52471 -0.97931,-2.55272 -4.99041,-2.55272 -5.96972,0 -0.41643,1.08543 -0.75712,6.9806 -0.75712,13.10037 0,11.00643 -0.0334,11.12686 -3.08664,11.12686 l -3.08664,0 -0.34351,-19.65058 c -0.32697,-18.70427 -0.46364,-19.65056 -2.83816,-19.65056 -2.37451,0 -2.51119,0.94629 -2.83815,19.65056 l -0.34351,19.65058 -3.0585,0 -3.058502,0 -0.339971,-22.76971 c -0.325861,-21.82458 -0.443519,-22.7697 -2.834623,-22.7697 -2.391103,0 -2.508761,0.94512 -2.834623,22.7697 l -0.339971,22.76971 -3.05497,0 -3.054981,0 -0.347036,-17.15526 c -0.338225,-16.7202 -0.418203,-17.16537 -3.153509,-17.55395 l -2.806483,-0.39869 0,31.27815 0,31.27816 -3.741978,0 -3.741977,0 0,-9.78787 c 0,-7.89782 -0.440472,-10.1866 -2.281036,-11.85272 -1.254569,-1.13569 -2.657811,-2.06486 -3.118315,-2.06486 -0.460502,0 -0.837279,5.48039 -0.837279,12.17863 l 0,12.17863 9.289634,10.75817 c 5.589806,6.47345 10.805984,11.28689 13.096922,12.08573 l 3.807288,1.32758 0,10.66996 c 0,10.54954 -0.03523,10.66998 -3.118315,10.66998 -3.017441,0 -3.118574,-0.27243 -3.126198,-8.42167 z m 62.374183,-28.38415 0,-36.80582 -5.15251,0 -5.1525,0 0.77313,-4.67871 c 0.42522,-2.57329 0.77931,-5.59313 0.78686,-6.71074 0.007,-1.1176 1.74734,-2.7503 3.8662,-3.62819 2.11884,-0.87789 8.01246,-6.41379 13.09692,-12.30201 l 9.24446,-10.70585 0,-11.55479 c 0,-9.23742 -0.36105,-11.55481 -1.80027,-11.55481 -3.55718,0 -5.68369,5.23869 -5.68369,14.00183 0,8.17205 -0.10396,8.45596 -3.09652,8.45596 l -3.09653,0 -0.33361,-30.879466 c -0.32344,-29.936458 -0.40982,-30.879464 -2.82828,-30.879464 -2.36175,0 -2.51309,0.947157 -2.84074,17.779089 l -0.34607,17.779081 -3.05655,0 -3.05654,0 -0.33935,-23.393537 c -0.32565,-22.448608 -0.44012,-23.393526 -2.83401,-23.393526 -2.38228,0 -2.52274,1.039711 -3.11831,23.081616 -0.61528,22.771019 -0.66144,23.08699 -3.43015,23.480307 l -2.80648,0.39868 0,-19.272641 c 0,-15.844555 -0.34221,-19.556744 -1.92386,-20.869747 -1.18654,-0.984999 -2.36858,-1.152221 -3.0843,-0.436325 -0.63824,0.638412 -1.31608,9.850388 -1.50629,20.471046 l -0.34585,19.310295 -3.11831,0 c -3.09402,0 -3.12112,-0.09714 -3.47892,-12.462938 -0.37841,-13.078935 -1.34003,-15.844067 -4.57584,-13.157873 -1.5523,1.288648 -1.92385,4.716726 -1.92385,17.750604 0,16.038169 -0.02,16.150669 -2.80648,15.754829 -2.71686,-0.38595 -2.81774,-0.89532 -3.15886,-15.95 -0.21416,-9.451825 0.19472,-16.872451 1.04251,-18.919705 1.50436,-3.632813 7.44059,-6.814641 10.5134,-5.635189 1.4933,0.57319 1.89339,-0.300374 1.89339,-4.134151 0,-3.792082 0.73875,-5.442158 3.35978,-7.504411 1.84787,-1.453919 4.51404,-2.49575 5.9248,-2.315161 1.46138,0.187058 4.01647,-1.130185 5.93847,-3.061505 1.93811,-1.947524 4.74848,-3.389838 6.60515,-3.389838 3.85924,0 9.35494,5.097372 9.35494,8.676877 0,1.968823 0.80545,2.552025 3.52456,2.552025 2.07141,0 4.6427,1.190531 6.23663,2.887634 2.51689,2.679824 2.71194,4.138899 2.71038,20.274393 l -0.001,17.386758 6.862,-0.427386 6.86199,-0.427377 0,15.772966 0,15.77295 -9.66678,11.68587 c -5.31672,6.42725 -11.21034,12.36271 -13.09692,13.18996 -4.94675,2.16886 -4.42162,4.94429 0.93503,4.94429 l 4.36564,0 0,39.92496 0,39.92496 -3.11831,0 -3.11831,0 0,-36.80582 z m 21.4639,27.1365 0.3643,-9.66933 9.66677,-0.3644 c 7.24831,-0.27323 9.66678,-0.79844 9.66678,-2.09933 0,-0.9542 -1.09868,-2.08372 -2.4415,-2.51002 -1.34282,-0.4263 -6.95578,-6.05419 -12.47326,-12.50642 l -10.03176,-11.73134 0,-16.39412 0,-16.39414 6.1509,0.43235 6.15088,0.43232 0.39758,-17.89218 c 0.37918,-17.06475 0.53373,-18.00235 3.34222,-20.27439 1.61958,-1.31022 4.27504,-2.38222 5.90104,-2.38222 2.11816,0 3.17967,-0.88995 3.74397,-3.13888 0.93083,-3.70966 6.07607,-8.09001 9.50269,-8.09001 1.33232,0 3.96749,1.54397 5.85595,3.43105 1.9745,1.97306 4.9669,3.51485 7.04193,3.62827 4.49791,0.24582 9.28983,5.54308 9.28983,10.26948 0,3.05675 0.46423,3.46545 3.93635,3.46545 2.61727,0 4.72496,0.97413 6.28967,2.90699 2.20444,2.7231 2.33023,5.17646 1.98845,38.78332 -0.35559,34.96394 -0.43625,35.97284 -3.17136,39.6707 -4.02542,5.44237 -3.75965,9.85824 0.62367,10.36273 3.37643,0.3886 3.43584,0.5462 3.79443,10.06412 0.36247,9.6204 0.34828,9.66932 -2.80648,9.66932 -3.01181,0 -3.17077,-0.34401 -3.17077,-6.8621 l 0,-6.86211 -26.81751,0 -26.81751,0 0,6.86211 c 0,6.51809 -0.15895,6.8621 -3.17078,6.8621 -3.15474,0 -3.16893,-0.0489 -2.80648,-9.66932 z m 52.12832,-14.79176 c 0,-2.97824 1.05388,-5.7514 3.11832,-8.20549 l 3.11831,-3.70688 0,-34.08131 c 0,-27.80421 -0.31661,-34.20281 -1.71899,-34.74112 -3.44467,-1.32217 -4.51764,2.09001 -4.51764,14.36659 0,12.2104 -0.004,12.22702 -3.11831,12.22702 l -3.11832,0 0,-19.08912 c 0,-19.17246 -0.74569,-22.67649 -4.51764,-21.22868 -1.36065,0.52227 -1.71899,4.79322 -1.71899,20.48881 l 0,19.82899 -3.11831,0 -3.11832,0 0,-22.30502 c 0,-18.57699 -0.32155,-22.57196 -1.92385,-23.90208 -1.1914,-0.98905 -2.36723,-1.15361 -3.0884,-0.43224 -0.64049,0.64066 -1.31832,11.25625 -1.50628,23.59017 l -0.34176,22.42535 -3.11831,0 -3.11832,0 -0.62366,-17.46717 c -0.58654,-16.42747 -0.77216,-17.46717 -3.11832,-17.46717 -2.41846,0 -2.50484,0.943 -2.82827,30.87946 l -0.33363,30.87946 -3.09652,0 c -3.00498,0 -3.09652,-0.26061 -3.09652,-8.81561 0,-9.31874 -1.39745,-13.64219 -4.40953,-13.64219 -1.47786,0 -1.8271,2.29235 -1.8271,11.99289 l 0,11.99289 8.41232,9.97121 c 4.62678,5.48416 10.52039,11.04695 13.09692,12.36173 3.51259,1.79248 4.6846,3.16455 4.6846,5.48432 0,3.08702 0.0274,3.09379 12.47326,3.09379 l 12.47326,0 0,-4.4986 z"
     style="fill:#ffffff" />
</svg>
